<?xml version="1.0" encoding="utf-8"?>
<!-- Generator: Adobe Illustrator 17.0.0, SVG Export Plug-In . SVG Version: 6.00 Build 0)  -->
<!DOCTYPE svg PUBLIC "-//W3C//DTD SVG 1.1//EN" "http://www.w3.org/Graphics/SVG/1.1/DTD/svg11.dtd">
<svg version="1.1" id="Layer_1" xmlns="http://www.w3.org/2000/svg" xmlns:xlink="http://www.w3.org/1999/xlink" x="0px" y="0px"
	 width="118px" height="103px" viewBox="0 0 118 103" enable-background="new 0 0 118 103" xml:space="preserve">
<title>Fill 1 + Fill 2</title>
<desc>Created with Sketch.</desc>
<g id="Page-1">
	<g id="FOXITY---SPLASH-SCREEN" transform="translate(-120.000000, -211.000000)">
		<g id="Fill-1-_x2B_-Fill-2-_x2B_-Imported-Layers-Copy" transform="translate(61.000000, 211.000000)">
			<g id="Fill-1-_x2B_-Fill-2" transform="translate(59.000000, 0.000000)">
				<path id="Fill-1" fill="#FFFFFF" d="M106.989,22.417l0.018-0.018L94.354,0.4L82.319,21.172H35.47L23.444,0.4l-11.969,20.65
					l-0.012-0.01l-0.214,0.405l-0.546,0.936l0.026,0.018L0.556,41.243l29.359,30.301L58.88,102.63L87.83,71.559l29.395-30.355
					L106.989,22.417L106.989,22.417z M58.88,48.782L15.389,23.016h86.954L58.88,48.782L58.88,48.782z M57.952,50.379v46.838
					l-43.771-72.77L57.952,50.379L57.952,50.379z M59.805,50.379l43.761-25.939L59.805,97.217V50.379L59.805,50.379z M94.354,4.086
					l9.82,17.086H84.455L94.354,4.086L94.354,4.086z M33.331,21.172H13.543l9.9-17.086L33.331,21.172L33.331,21.172z M2.828,40.928
					l9.04-16.739l42.879,71.295L31.263,70.28L2.828,40.928L2.828,40.928z M86.48,70.285L63.009,95.485l42.851-71.271l9.091,16.678
					L86.48,70.285L86.48,70.285z"/>
			</g>
		</g>
	</g>
</g>
</svg>
