<svg id="Layer_1" data-name="Layer 1" xmlns="http://www.w3.org/2000/svg" viewBox="0 0 160 44"><defs><style>.cls-1{fill:none;}.cls-2{fill:#fff;fill-rule:evenodd;}</style></defs><title>Taskade-Logo-White</title><rect id="Rectangle-11" class="cls-1" width="164" height="44"/><g id="logo-copy-2"><g id="logo"><path id="Fill-4" class="cls-2" d="M30.65,31.14a1.54,1.54,0,1,1,0-3.08,1.54,1.54,0,1,1,0,3.08m-18.06,0a1.54,1.54,0,1,1,0-3.08,1.54,1.54,0,1,1,0,3.08m24.66-11.4h-.74a3.26,3.26,0,0,1-3-1.93,3.26,3.26,0,0,1-6,0,3.27,3.27,0,0,1-6,0,3.27,3.27,0,0,1-6,0,3.27,3.27,0,0,1-6,0,3.25,3.25,0,0,1-3,1.93H6C4.88,20.94,5.59,22,8.33,22v6.13c0,5.77,6.64,8.65,13.28,8.65s13.28-2.88,13.28-8.65V22c2.75,0,3.46-1,2.36-2.21"/><path id="Fill-1" class="cls-2" d="M21.83,0a4.72,4.72,0,0,0-2.67.84A4.94,4.94,0,0,0,17.45.52a4.6,4.6,0,0,0-1.22.17,4.68,4.68,0,0,0-2.37,1.5,4.53,4.53,0,0,0-.52,0A4.67,4.67,0,0,0,9.1,4.86,4.68,4.68,0,0,0,5.18,8.68a4.68,4.68,0,0,0-2.18,2,4.73,4.73,0,0,0-.61,2.74A4.69,4.69,0,0,0,.91,18.63,4.7,4.7,0,0,0,0,21.41a4.78,4.78,0,0,0,.84,2.68A4.76,4.76,0,0,0,.68,27a4.7,4.7,0,0,0,1.51,2.37,4.69,4.69,0,0,0,2.67,4.76,4.68,4.68,0,0,0,3.81,3.92,4.71,4.71,0,0,0,1.95,2.17,4.65,4.65,0,0,0,2.35.63h.4a4.73,4.73,0,0,0,2.45,1.6,5,5,0,0,0,1.22.16,4.75,4.75,0,0,0,1.59-.28,4.68,4.68,0,0,0,5.45.07,4.72,4.72,0,0,0,1.71.32A5,5,0,0,0,27,42.56a4.76,4.76,0,0,0,2.37-1.51,4.41,4.41,0,0,0,.52,0,4.69,4.69,0,0,0,4.24-2.7,4.68,4.68,0,0,0,3.91-3.82,4.59,4.59,0,0,0,2.18-2,4.65,4.65,0,0,0,.61-2.74,4.69,4.69,0,0,0,1.61-2.45,4.76,4.76,0,0,0-.12-2.8,4.69,4.69,0,0,0,.06-5.47,4.69,4.69,0,0,0,.17-2.92,4.76,4.76,0,0,0-1.51-2.37,4.67,4.67,0,0,0-.6-2.86,4.74,4.74,0,0,0-2.07-1.9,4.71,4.71,0,0,0-3.82-3.92,4.65,4.65,0,0,0-2-2.17,4.59,4.59,0,0,0-2.34-.63h-.4A4.66,4.66,0,0,0,27.42.8,4.6,4.6,0,0,0,26.2.63a4.71,4.71,0,0,0-1.59.28A4.7,4.7,0,0,0,21.83,0m0,2.32A2.39,2.39,0,0,1,24,3.75a.2.2,0,0,0,.2.13.23.23,0,0,0,.16-.07A2.35,2.35,0,0,1,26.2,3a2.64,2.64,0,0,1,.62.08,2.4,2.4,0,0,1,1.74,2,.22.22,0,0,0,.21.18.25.25,0,0,0,.12,0,2.38,2.38,0,0,1,3.74,2.22.21.21,0,0,0,.21.23h.07a2.62,2.62,0,0,1,.82-.14A2.37,2.37,0,0,1,36,10.68a.21.21,0,0,0,.2.29h.22a2.38,2.38,0,0,1,1.92,3.8.22.22,0,0,0,.14.34,2.38,2.38,0,0,1,1.07,4.21.22.22,0,0,0,0,.36,2.39,2.39,0,0,1,0,4.35.22.22,0,0,0-.06.36,2.38,2.38,0,0,1-1.17,4.18.21.21,0,0,0-.15.33,2.39,2.39,0,0,1-2,3.76l-.27,0h0a.22.22,0,0,0-.2.29,2.39,2.39,0,0,1-3.11,3l-.08,0a.22.22,0,0,0-.21.24,2.39,2.39,0,0,1-1.18,2.27,2.38,2.38,0,0,1-2.61-.15.22.22,0,0,0-.13,0,.21.21,0,0,0-.21.18,2.4,2.4,0,0,1-1.73,1.89,2.64,2.64,0,0,1-.62.08,2.38,2.38,0,0,1-1.86-.9.21.21,0,0,0-.17-.08.2.2,0,0,0-.19.12,2.39,2.39,0,0,1-4.35,0,.22.22,0,0,0-.2-.13.2.2,0,0,0-.16.07,2.37,2.37,0,0,1-1.82.86,2.57,2.57,0,0,1-.62-.08,2.37,2.37,0,0,1-1.74-2,.22.22,0,0,0-.22-.18l-.12,0a2.33,2.33,0,0,1-1.37.44,2.47,2.47,0,0,1-1.19-.32,2.38,2.38,0,0,1-1.17-2.34.21.21,0,0,0-.22-.23h-.07a2.28,2.28,0,0,1-.82.14,2.37,2.37,0,0,1-2.21-3.25.22.22,0,0,0-.2-.29H6.86A2.38,2.38,0,0,1,5,28.48a.22.22,0,0,0-.14-.34,2.38,2.38,0,0,1-1.07-4.21.22.22,0,0,0,0-.36,2.39,2.39,0,0,1,0-4.35.22.22,0,0,0,0-.36A2.38,2.38,0,0,1,5,14.68a.21.21,0,0,0,.14-.33A2.39,2.39,0,0,1,5,11.79,2.37,2.37,0,0,1,7.08,10.6h.29a.21.21,0,0,0,.2-.28A2.37,2.37,0,0,1,9.8,7.13a2.41,2.41,0,0,1,.88.16l.08,0A.22.22,0,0,0,11,7.08a2.38,2.38,0,0,1,2.37-2.6A2.35,2.35,0,0,1,14.76,5a.2.2,0,0,0,.13,0,.22.22,0,0,0,.21-.18,2.37,2.37,0,0,1,1.73-1.89,2.64,2.64,0,0,1,.62-.08,2.39,2.39,0,0,1,1.86.9.19.19,0,0,0,.17.08.22.22,0,0,0,.19-.12,2.39,2.39,0,0,1,2.16-1.38"/></g></g><path id="taskade" class="cls-2" d="M60.07,29.2a1.1,1.1,0,0,1,.85.39,1.48,1.48,0,0,1,.35,1,1.26,1.26,0,0,1-.46,1,1.79,1.79,0,0,1-1.19.39h-.51a4.63,4.63,0,0,1-2.5-.71,5,5,0,0,1-1.78-1.95,5.89,5.89,0,0,1-.64-2.77V19.65H52.9a1.36,1.36,0,0,1-.95-.33,1.09,1.09,0,0,1-.37-.84,1.13,1.13,0,0,1,.37-.9,1.36,1.36,0,0,1,.95-.34h1.29v-4a1.39,1.39,0,0,1,.39-1,1.37,1.37,0,0,1,1-.39,1.35,1.35,0,0,1,1.4,1.4v4h2.38a1.36,1.36,0,0,1,1,.34,1.16,1.16,0,0,1,.36.9,1.12,1.12,0,0,1-.36.84,1.36,1.36,0,0,1-1,.33H57v6.92a2.86,2.86,0,0,0,.61,1.87,1.87,1.87,0,0,0,1.51.76ZM70.73,16.57a7.54,7.54,0,0,1,6.68,3.82,7.85,7.85,0,0,1,1,4V30.6A1.38,1.38,0,0,1,77,32a1.41,1.41,0,0,1-1-.41,1.38,1.38,0,0,1-.4-1v-1a6.86,6.86,0,0,1-5.41,2.55,6.76,6.76,0,0,1-3.65-1,7.14,7.14,0,0,1-2.58-2.78,8.44,8.44,0,0,1-.93-4,7.94,7.94,0,0,1,1-4,7.5,7.5,0,0,1,2.79-2.8A7.78,7.78,0,0,1,70.73,16.57Zm0,13a4.88,4.88,0,0,0,2.54-.68A5,5,0,0,0,75.05,27a5.49,5.49,0,0,0,.64-2.67,5.6,5.6,0,0,0-.64-2.69,4.91,4.91,0,0,0-1.78-1.89,5,5,0,0,0-5.07,0,4.93,4.93,0,0,0-1.79,1.89,5.5,5.5,0,0,0-.66,2.69A5.39,5.39,0,0,0,66.41,27a5,5,0,0,0,1.79,1.88A4.87,4.87,0,0,0,70.73,29.59Zm16.55,2.52a10.55,10.55,0,0,1-3.58-.59A6.73,6.73,0,0,1,81.07,30a1.15,1.15,0,0,1-.37-.86,1.32,1.32,0,0,1,.56-1.1,1.71,1.71,0,0,1,1-.39,1.5,1.5,0,0,1,1.07.51,4.28,4.28,0,0,0,1.59,1,6,6,0,0,0,2.27.43,4.89,4.89,0,0,0,2.48-.53,1.6,1.6,0,0,0,.88-1.43,1.68,1.68,0,0,0-.87-1.44,8.79,8.79,0,0,0-2.94-1q-5.37-1-5.37-4.42a3.45,3.45,0,0,1,.81-2.32,4.9,4.9,0,0,1,2.13-1.43,8.07,8.07,0,0,1,2.8-.48,8.61,8.61,0,0,1,3.26.59,5.56,5.56,0,0,1,2.28,1.62,1.44,1.44,0,0,1,.36.9,1.1,1.1,0,0,1-.47.87,1.32,1.32,0,0,1-.79.22,1.92,1.92,0,0,1-1.31-.53,4.19,4.19,0,0,0-1.49-.91,5.83,5.83,0,0,0-1.9-.27,4.49,4.49,0,0,0-2.11.44,1.34,1.34,0,0,0-.83,1.22,1.49,1.49,0,0,0,.28.93,2.4,2.4,0,0,0,1.06.7A12.78,12.78,0,0,0,87.7,23,9.73,9.73,0,0,1,92,24.69a3.55,3.55,0,0,1,1.27,2.83,4.1,4.1,0,0,1-.7,2.34,4.59,4.59,0,0,1-2.06,1.65A8,8,0,0,1,87.28,32.11ZM107.5,30a1.24,1.24,0,0,1,.31.84,1.3,1.3,0,0,1-.51,1,1.44,1.44,0,0,1-.89.34,1.22,1.22,0,0,1-1-.51l-5.32-6.58-1.4,1.23v4.29A1.3,1.3,0,0,1,97.31,32a1.37,1.37,0,0,1-1-.38,1.34,1.34,0,0,1-.38-1V11.5a1.34,1.34,0,0,1,.38-1,1.37,1.37,0,0,1,1-.38,1.3,1.3,0,0,1,1.37,1.37V22.9l6.8-6.08a1.19,1.19,0,0,1,.87-.36,1.16,1.16,0,0,1,1,.45,1.19,1.19,0,0,1,.37.87,1.16,1.16,0,0,1-.45.95l-5.15,4.59Zm8.93-13.41a7.54,7.54,0,0,1,6.68,3.82,7.85,7.85,0,0,1,1,4V30.6a1.43,1.43,0,1,1-2.86,0v-1a6.72,6.72,0,0,1-2.38,1.88,6.85,6.85,0,0,1-3,.67,6.76,6.76,0,0,1-3.65-1,7.06,7.06,0,0,1-2.58-2.78,8.33,8.33,0,0,1-.94-4,8,8,0,0,1,1-4,7.43,7.43,0,0,1,2.79-2.8A7.73,7.73,0,0,1,116.43,16.57Zm0,13A4.79,4.79,0,0,0,120.74,27a5.5,5.5,0,0,0,.65-2.67,5.6,5.6,0,0,0-.65-2.69A4.84,4.84,0,0,0,119,19.78a5,5,0,0,0-5.06,0,5,5,0,0,0-1.8,1.89,5.6,5.6,0,0,0-.65,2.69A5.5,5.5,0,0,0,112.1,27a5,5,0,0,0,1.8,1.88A4.84,4.84,0,0,0,116.43,29.59Zm24.19-19.46a1.41,1.41,0,0,1,1,.39,1.43,1.43,0,0,1,.39,1V24.33a7.84,7.84,0,0,1-1,4,7.52,7.52,0,0,1-2.77,2.8,7.63,7.63,0,0,1-3.91,1,7.73,7.73,0,0,1-3.93-1,7.29,7.29,0,0,1-2.79-2.8,7.93,7.93,0,0,1-1-4,8.27,8.27,0,0,1,.94-4,7,7,0,0,1,2.58-2.79,6.84,6.84,0,0,1,3.65-1,7,7,0,0,1,3,.67,6.83,6.83,0,0,1,2.38,1.88V11.56a1.37,1.37,0,0,1,1.43-1.43Zm-6.27,19.46A4.78,4.78,0,0,0,138.66,27a5.63,5.63,0,0,0,.65-2.69,5.56,5.56,0,0,0-.65-2.68,4.85,4.85,0,0,0-1.78-1.87,5,5,0,0,0-5.06,0,5,5,0,0,0-1.8,1.87,5.56,5.56,0,0,0-.65,2.68A5.63,5.63,0,0,0,130,27a5,5,0,0,0,1.8,1.89A4.84,4.84,0,0,0,134.35,29.59Zm25.51-5.49a1.17,1.17,0,0,1-.37.89,1.28,1.28,0,0,1-.92.35H147.93a5,5,0,0,0,1.78,3.16,5.51,5.51,0,0,0,3.6,1.2,5.6,5.6,0,0,0,1.75-.3,5.32,5.32,0,0,0,1.49-.76,1.45,1.45,0,0,1,.93-.31,1.31,1.31,0,0,1,1.34,1.23,1,1,0,0,1-.45.84A7.62,7.62,0,0,1,156,31.64a8.68,8.68,0,0,1-2.7.47,8.48,8.48,0,0,1-4.12-1,7.18,7.18,0,0,1-2.84-2.76,7.86,7.86,0,0,1-1-4,8.3,8.3,0,0,1,1-4A7,7,0,0,1,149,17.57a7.61,7.61,0,0,1,3.91-1,7.1,7.1,0,0,1,3.72.95A6.33,6.33,0,0,1,159,20.18,8.79,8.79,0,0,1,159.86,24.1Zm-7-5.12a4.82,4.82,0,0,0-3.32,1.12,5,5,0,0,0-1.61,3h9.32a5,5,0,0,0-1.4-3A4.07,4.07,0,0,0,152.89,19Z"/></svg>