<svg id="Layer_1" data-name="Layer 1" xmlns="http://www.w3.org/2000/svg" viewBox="0 0 1924.87 1086.63"><defs><style>.cls-1{fill:#192023;opacity:0.97;}.cls-2{fill:#ef4136;}.cls-2,.cls-3,.cls-4,.cls-5,.cls-6{opacity:0.12;}.cls-3{fill:#fcb315;}.cls-4{fill:#e26ec2;}.cls-5{fill:#38c5ed;}.cls-6{fill:#d60eb1;}</style></defs><title>Untitled-5</title><rect class="cls-1" x="419.01" y="-421" width="1081.79" height="1922.16" transform="translate(419.94 1501.85) rotate(-89.86)"/><polygon class="cls-2" points="1153.12 148.91 1187.52 214.88 1192.03 156.45 1153.12 148.91"/><polygon class="cls-2" points="591.94 451.51 683.4 433.39 604.66 413.98 591.94 451.51"/><polygon class="cls-3" points="692.22 962.07 728.58 952.53 708.32 909.19 692.22 962.07"/><polygon class="cls-3" points="976.15 988.79 1012.51 979.25 992.26 935.9 976.15 988.79"/><polygon class="cls-3" points="353.24 940.22 389.6 930.68 369.34 887.33 353.24 940.22"/><polygon class="cls-4" points="831.51 934.23 850.89 928.62 844.26 951.48 831.51 934.23"/><polygon class="cls-4" points="1529.05 891.32 1548.43 885.71 1541.8 908.58 1529.05 891.32"/><polygon class="cls-3" points="1371.19 885.16 1349.66 934.18 1411.36 939.54 1371.19 885.16"/><polygon class="cls-3" points="1280.03 552.93 1258.5 601.95 1320.2 607.31 1280.03 552.93"/><polygon class="cls-3" points="185.7 681.18 164.17 730.19 225.87 735.55 185.7 681.18"/><polygon class="cls-2" points="1287.99 1059.59 1324.35 1050.05 1304.09 1006.7 1287.99 1059.59"/><polygon class="cls-4" points="1458.48 974.82 1477.85 969.2 1471.22 992.07 1458.48 974.82"/><polygon class="cls-4" points="1077.44 592.86 1096.81 587.24 1090.18 610.11 1077.44 592.86"/><polygon class="cls-4" points="580.75 866.6 600.12 860.99 593.49 883.86 580.75 866.6"/><polygon class="cls-4" points="1161.79 452.07 1181.17 446.45 1174.54 469.32 1161.79 452.07"/><polygon class="cls-2" points="1624.21 874.81 1602.68 923.83 1664.39 929.19 1624.21 874.81"/><polygon class="cls-2" points="1540.11 517.6 1518.58 566.61 1580.29 571.97 1540.11 517.6"/><polygon class="cls-5" points="1464.11 203.63 1500.47 194.09 1480.21 150.75 1464.11 203.63"/><polygon class="cls-5" points="637.88 295.55 674.24 286.01 653.98 242.66 637.88 295.55"/><polygon class="cls-5" points="1363.63 393.38 1399.99 383.84 1379.73 340.49 1363.63 393.38"/><polygon class="cls-5" points="1634.55 442.45 1670.91 432.91 1650.65 389.57 1634.55 442.45"/><polygon class="cls-5" points="1114.49 862.14 1150.85 852.61 1130.59 809.26 1114.49 862.14"/><polygon class="cls-5" points="600.68 785.85 637.04 776.31 616.78 732.96 600.68 785.85"/><polygon class="cls-5" points="1755.55 815.68 1791.91 806.14 1771.65 762.79 1755.55 815.68"/><polygon class="cls-4" points="1623.65 240.46 1643.03 234.84 1636.4 257.71 1623.65 240.46"/><polygon class="cls-4" points="1782.7 618.86 1802.08 613.25 1795.45 636.11 1782.7 618.86"/><polygon class="cls-3" points="907.6 209.12 854.15 212.17 877.37 269.59 907.6 209.12"/><polygon class="cls-5" points="933.04 106.05 958.03 134.12 987.47 96.4 933.04 106.05"/><polygon class="cls-4" points="981.88 284.07 995.68 298.79 972.29 303.26 981.88 284.07"/><polygon class="cls-4" points="194.1 198.09 207.89 212.81 184.51 217.27 194.1 198.09"/><polygon class="cls-6" points="1453.62 297.58 1479.53 279.9 1458.78 275.12 1453.62 297.58"/><polygon class="cls-2" points="157.63 538.85 209.48 437.76 184.81 543.71 157.63 538.85"/><polygon class="cls-2" points="1789.93 195.03 1878.59 223.9 1819.38 168.49 1789.93 195.03"/><polygon class="cls-4" points="307.28 256.91 326.66 251.3 320.03 274.17 307.28 256.91"/><polygon class="cls-4" points="391.64 116.13 411.01 110.51 404.38 133.38 391.64 116.13"/><polygon class="cls-2" points="342.34 428.38 431 457.26 371.78 401.85 342.34 428.38"/><polygon class="cls-2" points="729.02 621.61 759.2 709.83 767.92 629.21 729.02 621.61"/><polygon class="cls-2" points="125.39 869.09 155.57 957.31 164.29 876.68 125.39 869.09"/><polygon class="cls-2" points="326.63 643.48 409.58 686.06 359.92 621.96 326.63 643.48"/></svg>