<svg id="Layer_1" data-name="Layer 1" xmlns="http://www.w3.org/2000/svg" viewBox="0 0 1081.79 1922.16">
   <defs>
      <style>
         .cls-1{
         fill:#192023;
         opacity:0.97;
         }
         .cls-2{
         fill:#ef4136;
         }
         .cls-2,.cls-3,.cls-4,.cls-5,.cls-6{
         opacity:0.3;
         }
         .cls-3{
         fill:#fcb315;
         }
         .cls-4{
         fill:#e26ec2;
         }
         .cls-5{
         fill:#38c5ed;
         }
         .cls-6{
         fill:#d60eb1;
         }
      </style>
   </defs>
   <title>Untitled-2</title>
   <rect class="cls-1" width="1081.79" height="1922.16"/>
   <polygon class="cls-2" points="935.78 1150.76 869.89 1185.33 928.34 1189.69 935.78 1150.76"/>
   <polygon class="cls-2" points="631.76 590.35 650.12 681.77 669.33 602.98 631.76 590.35"/>
   <polygon class="cls-3" points="121.46 691.92 131.09 728.25 174.38 707.88 121.46 691.92"/>
   <polygon class="cls-3" points="95.46 975.92 105.09 1012.25 148.38 991.88 95.46 975.92"/>
   <polygon class="cls-3" points="142.46 352.88 152.09 389.22 195.39 368.85 142.46 352.88"/>
   <polygon class="cls-4" points="149.65 831.14 155.31 850.5 132.43 843.93 149.65 831.14"/>
   <polygon class="cls-4" points="194.31 1528.57 199.98 1547.93 177.1 1541.36 194.31 1528.57"/>
   <polygon class="cls-3" points="200.08 1370.69 151.01 1349.28 145.8 1411 200.08 1370.69"/>
   <polygon class="cls-3" points="532.08 1278.69 483.01 1257.28 477.8 1319 532.08 1278.69"/>
   <polygon class="cls-3" points="401.08 184.69 352.01 163.28 346.8 225 401.08 184.69"/>
   <polygon class="cls-2" points="25.45 1287.93 35.08 1324.27 78.37 1303.9 25.45 1287.93"/>
   <polygon class="cls-4" points="110.64 1458.2 116.31 1477.56 93.43 1470.99 110.64 1458.2"/>
   <polygon class="cls-4" points="491.64 1076.2 497.31 1095.56 474.43 1088.99 491.64 1076.2"/>
   <polygon class="cls-4" points="216.65 580.2 222.31 599.56 199.43 592.99 216.65 580.2"/>
   <polygon class="cls-4" points="632.64 1160.2 638.31 1179.56 615.43 1172.99 632.64 1160.2"/>
   <polygon class="cls-2" points="211.07 1623.68 162 1602.28 156.79 1664 211.07 1623.68"/>
   <polygon class="cls-2" points="568.07 1538.68 519 1517.28 513.79 1579 568.07 1538.68"/>
   <polygon class="cls-5" points="881.84 1461.89 891.47 1498.23 934.77 1477.86 881.84 1461.89"/>
   <polygon class="cls-5" points="787.84 635.89 797.47 672.23 840.77 651.86 787.84 635.89"/>
   <polygon class="cls-5" points="691.84 1361.89 701.47 1398.23 744.77 1377.86 691.84 1361.89"/>
   <polygon class="cls-5" points="643.45 1632.93 653.08 1669.27 696.38 1648.9 643.45 1632.93"/>
   <polygon class="cls-5" points="222.45 1113.93 232.08 1150.27 275.38 1129.9 222.45 1113.93"/>
   <polygon class="cls-5" points="297.45 599.93 307.08 636.27 350.38 615.9 297.45 599.93"/>
   <polygon class="cls-5" points="270.53 1754.87 280.16 1791.21 323.46 1770.84 270.53 1754.87"/>
   <polygon class="cls-4" points="845.42 1621.53 851.08 1640.89 828.2 1634.32 845.42 1621.53"/>
   <polygon class="cls-4" points="467.42 1781.53 473.08 1800.89 450.2 1794.32 467.42 1781.53"/>
   <polygon class="cls-3" points="874.95 905.4 871.77 851.96 814.4 875.32 874.95 905.4"/>
   <polygon class="cls-5" points="978.09 930.57 950.08 955.64 987.87 984.99 978.09 930.57"/>
   <polygon class="cls-4" points="800.19 979.87 785.5 993.7 780.98 970.33 800.19 979.87"/>
   <polygon class="cls-4" points="884.19 191.87 869.5 205.7 864.98 182.33 884.19 191.87"/>
   <polygon class="cls-6" points="787.86 1451.64 805.62 1477.5 810.34 1456.74 787.86 1451.64"/>
   <polygon class="cls-2" points="543.34 156.26 644.55 207.86 538.54 183.45 543.34 156.26"/>
   <polygon class="cls-2" points="891.27 1787.69 862.62 1876.42 917.88 1817.07 891.27 1787.69"/>
   <polygon class="cls-4" points="825.64 305.2 831.31 324.56 808.43 317.99 825.64 305.2"/>
   <polygon class="cls-4" points="966.64 389.2 972.31 408.56 949.43 401.99 966.64 389.2"/>
   <polygon class="cls-2" points="654.27 340.69 625.62 429.42 680.88 370.07 654.27 340.69"/>
   <polygon class="cls-2" points="462.01 727.86 373.87 758.26 454.52 766.78 462.01 727.86"/>
   <polygon class="cls-2" points="213.01 124.86 124.87 155.26 205.52 163.78 213.01 124.86"/>
   <polygon class="cls-2" points="439.13 325.53 396.75 408.59 460.74 358.76 439.13 325.53"/>
</svg>