<svg id="Layer_1" data-name="Layer 1" xmlns="http://www.w3.org/2000/svg" viewBox="0 0 621.44 256.13"><defs><style>.cls-1{fill:#fafbfb;}.cls-2{fill:#2c2c2c;stroke:#48ba86;stroke-miterlimit:10;stroke-width:0.5px;}.cls-3{fill:#d3ebe0;}.cls-4{fill:#5ebf94;}.cls-5{fill:#48ba86;}.cls-6{fill:#addbc8;}.cls-7{fill:#86ccac;}</style></defs><title>C2C_Logo</title><path class="cls-1" d="M103.15,2.91,10.86,56.09A21.7,21.7,0,0,0,0,74.88V181.25A21.67,21.67,0,0,0,10.86,200l92.29,53.19a21.79,21.79,0,0,0,21.73,0L217.17,200A21.67,21.67,0,0,0,228,181.25V74.88a21.7,21.7,0,0,0-10.86-18.79L124.88,2.91A21.74,21.74,0,0,0,103.15,2.91Z"/><polygon class="cls-2" points="213 185.11 213 71.01 114.02 13.97 15.03 71.01 15.03 185.11 114.02 242.16 213 185.11"/><polygon class="cls-3" points="114.14 46.5 43.43 87.25 43.43 87.61 114.14 128.03 114.14 46.5"/><polygon class="cls-4" points="114.14 128.03 114.14 128.03 114.14 209.56 114.19 209.59 184.94 168.81 184.94 168.51 114.14 128.03"/><polygon class="cls-5" points="114.14 128.03 43.43 87.61 43.43 168.75 114.14 128.03 114.14 128.03"/><polygon class="cls-6" points="43.43 168.75 43.43 168.81 114.14 209.56 114.14 128.03 43.43 168.75"/><polygon class="cls-7" points="184.98 87.23 114.14 128.08 114.14 46.47 184.98 87.23"/><path class="cls-5" d="M292.74,128c0-12.43,9.33-19.92,19.25-19.92,9.71,0,15.48,5.71,17.2,12.39l-6.09,2c-1.13-4.63-4.69-8.34-11.11-8.34s-12.62,4.57-12.62,13.83c0,8.94,6.15,13.68,12.68,13.68a11.4,11.4,0,0,0,11.37-8.4l5.94,1.94c-1.73,6.46-7.55,12.65-17.31,12.65C301.75,147.88,292.74,140.45,292.74,128Z"/><path class="cls-5" d="M359.61,133.93c0,8.08-5.77,13.95-13.64,13.95s-13.59-5.87-13.59-13.95,5.77-13.88,13.59-13.88S359.61,125.91,359.61,133.93Zm-6.31,0c0-5.43-3.45-8.23-7.33-8.23s-7.34,2.8-7.34,8.23,3.51,8.35,7.34,8.35S353.3,139.43,353.3,133.93Z"/><path class="cls-5" d="M389.92,142.28a41.27,41.27,0,0,0,.27,4.79h-6a25.69,25.69,0,0,1-.27-3.39,8.64,8.64,0,0,1-7.71,4c-7.55,0-12.62-5.93-12.62-13.84,0-7.54,5.12-13.73,12.51-13.73,4.58,0,6.9,2.1,7.71,3.77V108.09h6.1Zm-13-.05c4.1,0,7-3.4,7-8.4s-2.81-8.13-6.91-8.13-7.11,3.17-7.11,8.18S372.66,142.23,376.92,142.23Z"/><path class="cls-5" d="M421.36,139.59c-1.41,4.57-5.56,8.29-11.87,8.29-7.12,0-13.43-5.17-13.43-14,0-8.29,6.15-13.78,12.78-13.78,8.09,0,12.84,5.33,12.84,13.62a9.61,9.61,0,0,1-.16,2h-19.2a7,7,0,0,0,7.17,6.83c3.78,0,5.72-2,6.58-4.57Zm-6-8.51c-.11-3.07-2.16-5.81-6.47-5.81a6.3,6.3,0,0,0-6.42,5.81Z"/><path class="cls-5" d="M425.89,124.84a17.23,17.23,0,0,1-.17-2c0-6,4.53-11.47,12.46-11.47,7.71,0,12.3,5,12.3,11,0,4.52-2.54,8.24-6.75,10.82l-6.79,4.2a7.3,7.3,0,0,0-3.56,4h17.31v5.71H425.4c.11-6,2.21-10.66,8.3-14.43l5.77-3.6c3.13-1.94,4.48-4,4.48-6.57,0-2.86-1.94-5.44-5.88-5.44-4.1,0-6.09,2.85-6.09,6.46,0,.54.11,1.19.16,1.78Z"/><path class="cls-5" d="M454.84,128c0-12.43,9.33-19.92,19.25-19.92,9.71,0,15.48,5.71,17.21,12.39l-6.1,2c-1.13-4.63-4.69-8.34-11.11-8.34s-12.61,4.57-12.61,13.83c0,8.94,6.14,13.68,12.67,13.68a11.41,11.41,0,0,0,11.38-8.4l5.93,1.94c-1.73,6.46-7.55,12.65-17.31,12.65C463.85,147.88,454.84,140.45,454.84,128Z"/><path class="cls-5" d="M512.22,127a14.72,14.72,0,0,0-2.05-.16c-4.85,0-7.06,2.8-7.06,7.7v12.49h-6.26V120.85h6.09v4.2a8,8,0,0,1,7.61-4.52,9.4,9.4,0,0,1,1.67.16Z"/><path class="cls-5" d="M540.42,139.59c-1.4,4.57-5.55,8.29-11.86,8.29-7.12,0-13.43-5.17-13.43-14,0-8.29,6.15-13.78,12.78-13.78,8.09,0,12.84,5.33,12.84,13.62a8.61,8.61,0,0,1-.17,2H521.39a7,7,0,0,0,7.17,6.83,6.34,6.34,0,0,0,6.58-4.57Zm-6-8.51c-.11-3.07-2.16-5.81-6.47-5.81a6.3,6.3,0,0,0-6.42,5.81Z"/><path class="cls-5" d="M553,132.05l6.74-1c1.51-.22,1.94-1,1.94-1.89,0-2.2-1.51-4-5-4a5.05,5.05,0,0,0-5.39,4.74l-5.72-1.29c.49-4.53,4.59-8.56,11.06-8.56,8.09,0,11.16,4.57,11.16,9.79v13a24.38,24.38,0,0,0,.32,4.2h-5.82a14.83,14.83,0,0,1-.27-3.34,9.18,9.18,0,0,1-8.09,4.15c-5.5,0-8.89-3.77-8.89-7.92C545.12,135.28,548.57,132.7,553,132.05Zm8.68,4.15V135l-6.84,1c-1.94.33-3.51,1.4-3.51,3.56,0,1.77,1.35,3.39,3.83,3.39C558.7,143,561.72,141.31,561.72,136.2Z"/><path class="cls-5" d="M583.24,120.85h5.45v5.55h-5.45v12.16c0,2.32,1,3.29,3.34,3.29a12.52,12.52,0,0,0,2.16-.22v5.17a9.9,9.9,0,0,1-3.83.59c-4.85,0-7.87-2.9-7.87-7.8V126.4h-4.85v-5.55h1.34c2.81,0,4.05-1.77,4.05-4.09v-3.93h5.66Z"/><path class="cls-5" d="M618.08,139.59c-1.4,4.57-5.56,8.29-11.87,8.29-7.11,0-13.42-5.17-13.42-14,0-8.29,6.14-13.78,12.78-13.78,8.09,0,12.83,5.33,12.83,13.62a9.61,9.61,0,0,1-.16,2H599a7,7,0,0,0,7.17,6.83c3.78,0,5.72-2,6.58-4.57Zm-6-8.51c-.11-3.07-2.15-5.81-6.47-5.81a6.3,6.3,0,0,0-6.42,5.81Z"/></svg>